<svg id="visual" viewBox="0 0 900 600" width="900" height="600" xmlns="http://www.w3.org/2000/svg" xmlns:xlink="http://www.w3.org/1999/xlink" version="1.1"><g stroke-width="1" stroke-linejoin="bevel"><path d="M494 316L400 289L462 385Z" fill="#0c0c0c" stroke="#0c0c0c"></path><path d="M400 289L383 427L462 385Z" fill="#282828" stroke="#282828"></path><path d="M494 316L398 230L400 289Z" fill="#4c4c4c" stroke="#4c4c4c"></path><path d="M400 289L312 368L383 427Z" fill="#363636" stroke="#363636"></path><path d="M398 230L334 294L400 289Z" fill="#4c4c4c" stroke="#4c4c4c"></path><path d="M334 294L312 368L400 289Z" fill="#212121" stroke="#212121"></path><path d="M615 404L577 325L462 385Z" fill="#3d3d3d" stroke="#3d3d3d"></path><path d="M462 385L577 325L494 316Z" fill="#282828" stroke="#282828"></path><path d="M494 316L534 179L398 230Z" fill="#1b1b1b" stroke="#1b1b1b"></path><path d="M324 519L425 508L383 427Z" fill="#141414" stroke="#141414"></path><path d="M383 427L425 508L462 385Z" fill="#212121" stroke="#212121"></path><path d="M398 230L289 231L334 294Z" fill="#1b1b1b" stroke="#1b1b1b"></path><path d="M334 294L289 231L312 368Z" fill="#0c0c0c" stroke="#0c0c0c"></path><path d="M577 325L534 179L494 316Z" fill="#0c0c0c" stroke="#0c0c0c"></path><path d="M398 230L360 131L289 231Z" fill="#141414" stroke="#141414"></path><path d="M425 508L477 517L462 385Z" fill="#4c4c4c" stroke="#4c4c4c"></path><path d="M477 517L615 404L462 385Z" fill="#000000" stroke="#000000"></path><path d="M577 325L575 166L534 179Z" fill="#141414" stroke="#141414"></path><path d="M685 178L575 166L577 325Z" fill="#3d3d3d" stroke="#3d3d3d"></path><path d="M462 104L360 131L398 230Z" fill="#454545" stroke="#454545"></path><path d="M462 104L398 230L534 179Z" fill="#454545" stroke="#454545"></path><path d="M166 420L324 519L312 368Z" fill="#454545" stroke="#454545"></path><path d="M312 368L324 519L383 427Z" fill="#3d3d3d" stroke="#3d3d3d"></path><path d="M425 508L406 600L477 517Z" fill="#363636" stroke="#363636"></path><path d="M576 117L462 104L534 179Z" fill="#0c0c0c" stroke="#0c0c0c"></path><path d="M698 490L677 390L615 404Z" fill="#0c0c0c" stroke="#0c0c0c"></path><path d="M615 404L677 390L577 325Z" fill="#1b1b1b" stroke="#1b1b1b"></path><path d="M491 600L579 535L477 517Z" fill="#2f2f2f" stroke="#2f2f2f"></path><path d="M477 517L579 535L615 404Z" fill="#0c0c0c" stroke="#0c0c0c"></path><path d="M685 178L576 117L575 166Z" fill="#000000" stroke="#000000"></path><path d="M575 166L576 117L534 179Z" fill="#141414" stroke="#141414"></path><path d="M324 519L406 600L425 508Z" fill="#2f2f2f" stroke="#2f2f2f"></path><path d="M406 600L491 600L477 517Z" fill="#3d3d3d" stroke="#3d3d3d"></path><path d="M164 225L162 278L289 231Z" fill="#363636" stroke="#363636"></path><path d="M289 231L162 278L312 368Z" fill="#0c0c0c" stroke="#0c0c0c"></path><path d="M162 278L166 420L312 368Z" fill="#363636" stroke="#363636"></path><path d="M324 519L271 600L406 600Z" fill="#3d3d3d" stroke="#3d3d3d"></path><path d="M825 375L729 329L677 390Z" fill="#141414" stroke="#141414"></path><path d="M677 390L729 329L577 325Z" fill="#000000" stroke="#000000"></path><path d="M729 329L685 178L577 325Z" fill="#0c0c0c" stroke="#0c0c0c"></path><path d="M410 0L281 85L360 131Z" fill="#2f2f2f" stroke="#2f2f2f"></path><path d="M360 131L281 85L289 231Z" fill="#2f2f2f" stroke="#2f2f2f"></path><path d="M235 96L164 225L289 231Z" fill="#0c0c0c" stroke="#0c0c0c"></path><path d="M660 600L698 490L579 535Z" fill="#363636" stroke="#363636"></path><path d="M579 535L698 490L615 404Z" fill="#141414" stroke="#141414"></path><path d="M281 85L235 96L289 231Z" fill="#3d3d3d" stroke="#3d3d3d"></path><path d="M491 600L602 600L579 535Z" fill="#141414" stroke="#141414"></path><path d="M186 538L271 600L324 519Z" fill="#3d3d3d" stroke="#3d3d3d"></path><path d="M166 420L186 538L324 519Z" fill="#282828" stroke="#282828"></path><path d="M560 0L462 0L462 104Z" fill="#363636" stroke="#363636"></path><path d="M462 104L410 0L360 131Z" fill="#000000" stroke="#000000"></path><path d="M281 85L266 0L235 96Z" fill="#141414" stroke="#141414"></path><path d="M560 0L462 104L576 117Z" fill="#282828" stroke="#282828"></path><path d="M462 0L410 0L462 104Z" fill="#1b1b1b" stroke="#1b1b1b"></path><path d="M87 191L162 278L164 225Z" fill="#363636" stroke="#363636"></path><path d="M87 191L101 320L162 278Z" fill="#282828" stroke="#282828"></path><path d="M162 278L101 320L166 420Z" fill="#0c0c0c" stroke="#0c0c0c"></path><path d="M166 420L70 515L186 538Z" fill="#454545" stroke="#454545"></path><path d="M729 329L762 215L685 178Z" fill="#282828" stroke="#282828"></path><path d="M685 178L689 89L576 117Z" fill="#141414" stroke="#141414"></path><path d="M787 297L762 215L729 329Z" fill="#454545" stroke="#454545"></path><path d="M186 538L220 600L271 600Z" fill="#363636" stroke="#363636"></path><path d="M602 600L660 600L579 535Z" fill="#3d3d3d" stroke="#3d3d3d"></path><path d="M796 123L689 89L685 178Z" fill="#3d3d3d" stroke="#3d3d3d"></path><path d="M825 375L677 390L698 490Z" fill="#1b1b1b" stroke="#1b1b1b"></path><path d="M825 375L787 297L729 329Z" fill="#454545" stroke="#454545"></path><path d="M101 320L91 393L166 420Z" fill="#4c4c4c" stroke="#4c4c4c"></path><path d="M186 538L109 600L220 600Z" fill="#4c4c4c" stroke="#4c4c4c"></path><path d="M689 89L560 0L576 117Z" fill="#2f2f2f" stroke="#2f2f2f"></path><path d="M410 0L266 0L281 85Z" fill="#4c4c4c" stroke="#4c4c4c"></path><path d="M235 96L87 191L164 225Z" fill="#212121" stroke="#212121"></path><path d="M72 73L87 191L235 96Z" fill="#212121" stroke="#212121"></path><path d="M101 320L0 319L91 393Z" fill="#0c0c0c" stroke="#0c0c0c"></path><path d="M835 521L825 375L698 490Z" fill="#212121" stroke="#212121"></path><path d="M900 168L796 123L762 215Z" fill="#454545" stroke="#454545"></path><path d="M0 435L70 515L91 393Z" fill="#0c0c0c" stroke="#0c0c0c"></path><path d="M91 393L70 515L166 420Z" fill="#141414" stroke="#141414"></path><path d="M762 215L796 123L685 178Z" fill="#2f2f2f" stroke="#2f2f2f"></path><path d="M689 89L738 0L560 0Z" fill="#282828" stroke="#282828"></path><path d="M900 295L762 215L787 297Z" fill="#2f2f2f" stroke="#2f2f2f"></path><path d="M70 515L109 600L186 538Z" fill="#3d3d3d" stroke="#3d3d3d"></path><path d="M266 0L167 0L235 96Z" fill="#2f2f2f" stroke="#2f2f2f"></path><path d="M0 199L0 319L87 191Z" fill="#000000" stroke="#000000"></path><path d="M87 191L0 319L101 320Z" fill="#0c0c0c" stroke="#0c0c0c"></path><path d="M797 600L835 521L698 490Z" fill="#454545" stroke="#454545"></path><path d="M796 123L738 0L689 89Z" fill="#454545" stroke="#454545"></path><path d="M660 600L797 600L698 490Z" fill="#1b1b1b" stroke="#1b1b1b"></path><path d="M167 0L72 73L235 96Z" fill="#000000" stroke="#000000"></path><path d="M0 319L0 435L91 393Z" fill="#3d3d3d" stroke="#3d3d3d"></path><path d="M70 515L0 600L109 600Z" fill="#454545" stroke="#454545"></path><path d="M0 130L0 199L87 191Z" fill="#000000" stroke="#000000"></path><path d="M900 411L900 295L825 375Z" fill="#282828" stroke="#282828"></path><path d="M825 375L900 295L787 297Z" fill="#1b1b1b" stroke="#1b1b1b"></path><path d="M796 123L813 0L738 0Z" fill="#1b1b1b" stroke="#1b1b1b"></path><path d="M835 521L900 411L825 375Z" fill="#2f2f2f" stroke="#2f2f2f"></path><path d="M900 492L900 411L835 521Z" fill="#1b1b1b" stroke="#1b1b1b"></path><path d="M0 435L0 528L70 515Z" fill="#454545" stroke="#454545"></path><path d="M167 0L91 0L72 73Z" fill="#4c4c4c" stroke="#4c4c4c"></path><path d="M72 73L0 130L87 191Z" fill="#3d3d3d" stroke="#3d3d3d"></path><path d="M0 0L0 130L72 73Z" fill="#282828" stroke="#282828"></path><path d="M900 600L900 492L835 521Z" fill="#3d3d3d" stroke="#3d3d3d"></path><path d="M900 295L900 168L762 215Z" fill="#1b1b1b" stroke="#1b1b1b"></path><path d="M900 116L813 0L796 123Z" fill="#212121" stroke="#212121"></path><path d="M900 168L900 116L796 123Z" fill="#282828" stroke="#282828"></path><path d="M0 528L0 600L70 515Z" fill="#000000" stroke="#000000"></path><path d="M797 600L900 600L835 521Z" fill="#363636" stroke="#363636"></path><path d="M91 0L0 0L72 73Z" fill="#363636" stroke="#363636"></path><path d="M900 116L900 0L813 0Z" fill="#1b1b1b" stroke="#1b1b1b"></path></g></svg>